<svg width="24" height="24" viewBox="0 0 24 24" fill="none" xmlns="http://www.w3.org/2000/svg">
  <!-- Git branch base -->
  <path d="M5 6C5 4.89543 5.89543 4 7 4H17C18.1046 4 19 4.89543 19 6V18C19 19.1046 18.1046 20 17 20H7C5.89543 20 5 19.1046 5 18V6Z" fill="#F05032"/>
  <path d="M12 4V20" stroke="white" stroke-width="2"/>
  <path d="M7 8H17" stroke="white" stroke-width="2"/>
  
  <!-- Neural network nodes -->
  <circle cx="12" cy="12" r="2" fill="#4DABF7"/>
  <circle cx="8" cy="8" r="1.5" fill="#4DABF7"/>
  <circle cx="16" cy="8" r="1.5" fill="#4DABF7"/>
  <circle cx="8" cy="16" r="1.5" fill="#4DABF7"/>
  <circle cx="16" cy="16" r="1.5" fill="#4DABF7"/>
  
  <!-- Connections -->
  <path d="M8 8L12 12L16 8" stroke="#4DABF7" stroke-width="1"/>
  <path d="M8 16L12 12L16 16" stroke="#4DABF7" stroke-width="1"/>
</svg>
